<svg width="192" height="85" viewBox="0 0 192 85" fill="none" xmlns="http://www.w3.org/2000/svg">
<rect width="192" height="61" rx="20" fill="white"/>
<path d="M165.871 85C165.871 85 135.782 74 135.782 59H162.703C161.912 68.8333 165.871 85 165.871 85Z" fill="white"/>
<path d="M20.3318 29.896C20.2251 29.896 20.1344 29.864 20.0598 29.8C19.9851 29.7253 19.9478 29.6293 19.9478 29.512V22.184C19.9478 22.0773 19.9851 21.9867 20.0598 21.912C20.1344 21.8373 20.2251 21.8 20.3318 21.8H21.6278C21.7451 21.8 21.8358 21.8373 21.8998 21.912C21.9744 21.9867 22.0118 22.0773 22.0118 22.184V29.512C22.0118 29.6293 21.9744 29.7253 21.8998 29.8C21.8358 29.864 21.7451 29.896 21.6278 29.896H20.3318ZM20.2358 33C20.1184 33 20.0224 32.9627 19.9478 32.888C19.8838 32.8133 19.8518 32.7227 19.8518 32.616V31.128C19.8518 31.0107 19.8838 30.9147 19.9478 30.84C20.0224 30.7653 20.1184 30.728 20.2358 30.728H21.7238C21.8411 30.728 21.9371 30.7653 22.0118 30.84C22.0864 30.9147 22.1238 31.0107 22.1238 31.128V32.616C22.1238 32.7227 22.0864 32.8133 22.0118 32.888C21.9371 32.9627 21.8411 33 21.7238 33H20.2358ZM29.045 27.848C29.045 27.1227 28.8583 26.5627 28.485 26.168C28.1223 25.7627 27.541 25.56 26.741 25.56H24.293C24.1863 25.56 24.0957 25.5227 24.021 25.448C23.9463 25.3733 23.909 25.2827 23.909 25.176V24.248C23.909 24.1413 23.9463 24.0507 24.021 23.976C24.0957 23.9013 24.1863 23.864 24.293 23.864H26.821C27.7597 23.864 28.5437 23.9973 29.173 24.264C29.8023 24.5307 30.2717 24.952 30.581 25.528C30.901 26.0933 31.061 26.84 31.061 27.768V34.6C31.061 34.7067 31.0237 34.7973 30.949 34.872C30.885 34.9467 30.7943 34.984 30.677 34.984H29.429C29.3117 34.984 29.2157 34.9467 29.141 34.872C29.077 34.808 29.045 34.7173 29.045 34.6V27.848ZM33.8385 25.56C33.7318 25.56 33.6412 25.5227 33.5665 25.448C33.4918 25.3733 33.4545 25.2827 33.4545 25.176V24.248C33.4545 24.1413 33.4918 24.0507 33.5665 23.976C33.6412 23.9013 33.7318 23.864 33.8385 23.864H37.7745C38.7132 23.864 39.4918 24.008 40.1105 24.296C40.7398 24.5733 41.2145 25.0053 41.5345 25.592C41.8545 26.168 42.0145 26.8933 42.0145 27.768V32.616C42.0145 32.7227 41.9772 32.8133 41.9025 32.888C41.8278 32.9627 41.7372 33 41.6305 33H40.3665C40.2492 33 40.1532 32.968 40.0785 32.904C40.0145 32.8293 39.9825 32.7333 39.9825 32.616V27.848C39.9825 27.1227 39.7958 26.5627 39.4225 26.168C39.0598 25.7627 38.4785 25.56 37.6785 25.56H33.8385ZM35.5665 24.616H36.1105C36.3452 24.616 36.5052 24.664 36.5905 24.76C36.6865 24.856 36.7238 24.968 36.7025 25.096C36.6065 25.48 36.5265 25.8427 36.4625 26.184C36.4092 26.5147 36.3665 26.8507 36.3345 27.192C36.3132 27.5333 36.3025 27.912 36.3025 28.328L36.3825 32.616C36.3825 32.7227 36.3452 32.8133 36.2705 32.888C36.2065 32.9627 36.1158 33 35.9985 33L33.2145 32.984C33.1078 32.984 33.0172 32.9467 32.9425 32.872C32.8678 32.7973 32.8305 32.7067 32.8305 32.6V31.736C32.8305 31.6293 32.8678 31.5387 32.9425 31.464C33.0172 31.3893 33.1078 31.352 33.2145 31.352L34.4785 31.368V28.376C34.4785 27.9813 34.4838 27.6133 34.4945 27.272C34.5158 26.9307 34.5532 26.584 34.6065 26.232C34.6705 25.88 34.7612 25.496 34.8785 25.08C34.9212 24.952 34.9905 24.8453 35.0865 24.76C35.1825 24.664 35.3425 24.616 35.5665 24.616ZM44.5036 33C44.397 33 44.3063 32.9627 44.2316 32.888C44.157 32.8133 44.1196 32.7227 44.1196 32.616V24.248C44.1196 24.1413 44.157 24.0507 44.2316 23.976C44.3063 23.9013 44.397 23.864 44.5036 23.864H45.8316C45.9383 23.864 46.029 23.9013 46.1036 23.976C46.1783 24.0507 46.2156 24.1413 46.2156 24.248V32.616C46.2156 32.7227 46.1783 32.8133 46.1036 32.888C46.029 32.9627 45.9383 33 45.8316 33H44.5036ZM54.6405 33C54.5018 33 54.3952 32.9627 54.3205 32.888C54.2458 32.8133 54.1872 32.7547 54.1445 32.712L48.3365 24.456C48.2725 24.36 48.2405 24.2747 48.2405 24.2C48.2405 24.104 48.2725 24.024 48.3365 23.96C48.4005 23.896 48.4805 23.864 48.5765 23.864H49.8405C49.9898 23.864 50.1018 23.9013 50.1765 23.976C50.2512 24.0507 50.3098 24.1147 50.3525 24.168L56.2085 32.408C56.2512 32.472 56.2778 32.5253 56.2885 32.568C56.2992 32.6 56.3045 32.632 56.3045 32.664C56.3045 32.76 56.2672 32.84 56.1925 32.904C56.1285 32.968 56.0538 33 55.9685 33H54.6405ZM48.4965 33C48.3898 33 48.2992 32.9627 48.2245 32.888C48.1498 32.8133 48.1125 32.7173 48.1125 32.6V30.392C48.1125 29.848 48.1605 29.352 48.2565 28.904C48.3632 28.456 48.5552 28.04 48.8325 27.656C49.1205 27.2613 49.5312 26.888 50.0645 26.536L51.0565 27.976C50.7365 28.1893 50.4965 28.44 50.3365 28.728C50.1765 29.0053 50.0698 29.2933 50.0165 29.592C49.9738 29.88 49.9525 30.1573 49.9525 30.424V32.6C49.9525 32.7173 49.9152 32.8133 49.8405 32.888C49.7658 32.9627 49.6752 33 49.5685 33H48.4965ZM53.9365 29.992L52.9925 28.552C53.4298 28.3387 53.7392 28.1147 53.9205 27.88C54.1018 27.6347 54.2085 27.384 54.2405 27.128C54.2832 26.872 54.3045 26.6107 54.3045 26.344V24.264C54.3045 24.1467 54.3365 24.0507 54.4005 23.976C54.4752 23.9013 54.5712 23.864 54.6885 23.864H55.8085C55.9258 23.864 56.0218 23.9013 56.0965 23.976C56.1712 24.0507 56.2085 24.1467 56.2085 24.264V26.424C56.2085 26.8613 56.1498 27.288 56.0325 27.704C55.9258 28.12 55.7125 28.52 55.3925 28.904C55.0725 29.2773 54.5872 29.64 53.9365 29.992ZM65.319 33C65.0843 33 64.967 32.8827 64.967 32.648V27.336C64.967 26.6853 65.0417 26.184 65.191 25.832C65.3403 25.4693 65.5483 25.288 65.815 25.288H67.879C67.6123 25.288 67.3937 25.5013 67.223 25.928C67.063 26.344 66.983 26.8613 66.983 27.48V32.648C66.983 32.7547 66.9403 32.84 66.855 32.904C66.7697 32.968 66.6737 33 66.567 33H65.319ZM61.287 25.56C61.1803 25.56 61.0897 25.5227 61.015 25.448C60.9403 25.3733 60.903 25.2827 60.903 25.176V24.248C60.903 24.1413 60.9403 24.0507 61.015 23.976C61.0897 23.9013 61.1803 23.864 61.287 23.864H68.279C68.3963 23.864 68.487 23.9013 68.551 23.976C68.6257 24.0507 68.663 24.1413 68.663 24.248V25.176C68.663 25.2827 68.6257 25.3733 68.551 25.448C68.487 25.5227 68.3963 25.56 68.279 25.56H61.287ZM70.6733 29.256C70.5666 29.256 70.4759 29.2187 70.4013 29.144C70.3266 29.0693 70.2893 28.9787 70.2893 28.872V24.248C70.2893 24.1413 70.3266 24.0507 70.4013 23.976C70.4759 23.9013 70.5666 23.864 70.6733 23.864H72.0013C72.1186 23.864 72.2093 23.9013 72.2733 23.976C72.3479 24.0507 72.3853 24.1413 72.3853 24.248V28.872C72.3853 28.9787 72.3479 29.0693 72.2733 29.144C72.2093 29.2187 72.1186 29.256 72.0013 29.256H70.6733ZM78.9423 25.608L74.6543 25.624C74.5476 25.624 74.4569 25.5867 74.3823 25.512C74.3076 25.4373 74.2703 25.3467 74.2703 25.24V24.248C74.2703 24.1413 74.3076 24.0507 74.3823 23.976C74.4569 23.9013 74.5476 23.864 74.6543 23.864H79.2143C79.8969 23.864 80.5103 24.0133 81.0543 24.312C81.5983 24.6 82.0196 25.032 82.3183 25.608C82.6276 26.184 82.7823 26.904 82.7823 27.768V32.616C82.7823 32.7227 82.7449 32.8133 82.6703 32.888C82.6063 32.9627 82.5156 33 82.3983 33H78.1743C78.0569 33 77.9609 32.9627 77.8863 32.888C77.8223 32.8133 77.7903 32.7227 77.7903 32.616V31.688C77.7903 31.5813 77.8223 31.4907 77.8863 31.416C77.9609 31.3413 78.0569 31.304 78.1743 31.304H80.7663V27.88C80.7663 27.4107 80.6863 27.0053 80.5263 26.664C80.3663 26.3227 80.1476 26.0613 79.8703 25.88C79.5929 25.6987 79.2836 25.608 78.9423 25.608ZM74.5103 33C74.4143 33 74.3289 32.9627 74.2543 32.888C74.1796 32.8133 74.1529 32.7173 74.1743 32.6L75.6943 25.128C75.7156 25.0107 75.7636 24.92 75.8383 24.856C75.9129 24.792 76.0036 24.7653 76.1103 24.776L77.1823 24.808C77.2996 24.8187 77.3903 24.8667 77.4543 24.952C77.5289 25.0373 77.5556 25.1333 77.5343 25.24L76.1583 32.6C76.1583 32.7173 76.1156 32.8133 76.0303 32.888C75.9449 32.9627 75.8489 33 75.7423 33H74.5103ZM89.7329 31.416C90.3622 31.4267 90.9009 31.3093 91.3489 31.064C91.8075 30.808 92.1595 30.456 92.4049 30.008C92.6609 29.56 92.7889 29.048 92.7889 28.472V24.248C92.7889 24.1307 92.8209 24.04 92.8849 23.976C92.9595 23.9013 93.0555 23.864 93.1729 23.864H94.2929C94.4102 23.864 94.5009 23.9013 94.5649 23.976C94.6395 24.0507 94.6769 24.1413 94.6769 24.248V28.584C94.6769 29.2773 94.5595 29.9067 94.3249 30.472C94.1009 31.0373 93.7809 31.5173 93.3649 31.912C92.9489 32.3067 92.4582 32.6107 91.8929 32.824C91.3382 33.0267 90.7302 33.1227 90.0689 33.112H88.7089C87.9302 33.112 87.2475 32.952 86.6609 32.632C86.0742 32.3013 85.6155 31.8533 85.2849 31.288C84.9649 30.712 84.8049 30.0613 84.8049 29.336V24.248C84.8049 24.1413 84.8422 24.0507 84.9169 23.976C84.9915 23.9013 85.0822 23.864 85.1889 23.864H86.3249C86.4315 23.864 86.5222 23.9013 86.5969 23.976C86.6715 24.04 86.7089 24.1307 86.7089 24.248L86.7409 28.6C86.7409 29.5067 86.9809 30.2053 87.4609 30.696C87.9515 31.176 88.5595 31.416 89.2849 31.416H89.7329ZM86.4369 29.944L86.4209 28.472C87.0609 28.4613 87.5569 28.3547 87.9089 28.152C88.2609 27.9387 88.5062 27.6507 88.6449 27.288C88.7835 26.9147 88.8529 26.488 88.8529 26.008V24.264C88.8529 24.1467 88.8849 24.0507 88.9489 23.976C89.0235 23.9013 89.1195 23.864 89.2369 23.864H90.3569C90.4635 23.864 90.5542 23.9013 90.6289 23.976C90.7035 24.0507 90.7409 24.1467 90.7409 24.264V26.056C90.7409 26.8453 90.5809 27.5333 90.2609 28.12C89.9409 28.696 89.4609 29.144 88.8209 29.464C88.1809 29.784 87.3862 29.944 86.4369 29.944ZM103.066 33C102.948 33 102.852 32.968 102.778 32.904C102.714 32.8293 102.682 32.7333 102.682 32.616V27.848C102.682 27.1227 102.495 26.5627 102.122 26.168C101.759 25.7627 101.178 25.56 100.378 25.56H97.0818C96.9751 25.56 96.8844 25.5227 96.8098 25.448C96.7351 25.3733 96.6978 25.2827 96.6978 25.176V24.248C96.6978 24.1413 96.7351 24.0507 96.8098 23.976C96.8844 23.9013 96.9751 23.864 97.0818 23.864H100.458C101.876 23.864 102.938 24.1947 103.642 24.856C104.346 25.5067 104.698 26.4987 104.698 27.832V32.616C104.698 32.7227 104.66 32.8133 104.586 32.888C104.522 32.9627 104.431 33 104.314 33H103.066ZM97.0818 33C96.9751 33 96.8844 32.9627 96.8098 32.888C96.7351 32.8133 96.6978 32.7227 96.6978 32.616V27.576C96.6978 27.4693 96.7351 27.3787 96.8098 27.304C96.8844 27.2293 96.9751 27.192 97.0818 27.192H98.3458C98.4524 27.192 98.5431 27.2293 98.6178 27.304C98.6924 27.3787 98.7298 27.4693 98.7298 27.576V32.616C98.7298 32.7227 98.6924 32.8133 98.6178 32.888C98.5431 32.9627 98.4524 33 98.3458 33H97.0818ZM108.605 33.176C108.509 33.1973 108.413 33.1707 108.317 33.096C108.232 33.0213 108.189 32.9307 108.189 32.824V31.688C108.189 31.5813 108.221 31.4853 108.285 31.4C108.36 31.3147 108.456 31.2507 108.573 31.208L109.133 30.984C109.496 30.8347 109.826 30.648 110.125 30.424C110.424 30.1893 110.658 29.88 110.829 29.496C111 29.1013 111.085 28.5947 111.085 27.976C111.085 27.4 111.016 26.9413 110.877 26.6C110.749 26.248 110.525 25.9973 110.205 25.848C109.885 25.6987 109.442 25.624 108.877 25.624H108.445C108.338 25.624 108.248 25.5867 108.173 25.512C108.098 25.4373 108.061 25.3467 108.061 25.24V24.232C108.061 24.1253 108.098 24.04 108.173 23.976C108.248 23.9013 108.338 23.864 108.445 23.864H109.261C110.221 23.864 110.984 24.0133 111.549 24.312C112.125 24.6 112.541 25.048 112.797 25.656C113.053 26.2533 113.181 27.0213 113.181 27.96C113.181 28.696 113.069 29.3413 112.845 29.896C112.632 30.4507 112.338 30.9307 111.965 31.336C111.602 31.7307 111.186 32.0613 110.717 32.328C110.248 32.5947 109.762 32.808 109.261 32.968L108.605 33.176ZM108.909 25.624L106.605 25.608C106.498 25.608 106.408 25.576 106.333 25.512C106.258 25.4373 106.221 25.3467 106.221 25.24V22.024C106.221 21.9173 106.258 21.8267 106.333 21.752C106.408 21.6773 106.498 21.64 106.605 21.64H107.757C107.874 21.64 107.965 21.6773 108.029 21.752C108.104 21.8267 108.141 21.9173 108.141 22.024V23.864H108.941L108.909 25.624ZM125.066 33C124.948 33 124.852 32.968 124.778 32.904C124.714 32.8293 124.682 32.7333 124.682 32.616V27.848C124.682 27.1227 124.495 26.5627 124.122 26.168C123.759 25.7627 123.178 25.56 122.378 25.56H119.082C118.975 25.56 118.884 25.5227 118.81 25.448C118.735 25.3733 118.698 25.2827 118.698 25.176V24.248C118.698 24.1413 118.735 24.0507 118.81 23.976C118.884 23.9013 118.975 23.864 119.082 23.864H122.458C123.876 23.864 124.938 24.1947 125.642 24.856C126.346 25.5067 126.698 26.4987 126.698 27.832V32.616C126.698 32.7227 126.66 32.8133 126.586 32.888C126.522 32.9627 126.431 33 126.314 33H125.066ZM119.082 33C118.975 33 118.884 32.9627 118.81 32.888C118.735 32.8133 118.698 32.7227 118.698 32.616V27.576C118.698 27.4693 118.735 27.3787 118.81 27.304C118.884 27.2293 118.975 27.192 119.082 27.192H120.346C120.452 27.192 120.543 27.2293 120.618 27.304C120.692 27.3787 120.73 27.4693 120.73 27.576V32.616C120.73 32.7227 120.692 32.8133 120.618 32.888C120.543 32.9627 120.452 33 120.346 33H119.082ZM128.999 33C128.892 33 128.802 32.9627 128.727 32.888C128.652 32.8133 128.615 32.7227 128.615 32.616V31.656C128.615 31.5493 128.652 31.4587 128.727 31.384C128.802 31.3093 128.892 31.272 128.999 31.272H133.079L128.231 24.472C128.199 24.4187 128.172 24.3707 128.151 24.328C128.13 24.2747 128.119 24.2267 128.119 24.184C128.119 24.0987 128.151 24.024 128.215 23.96C128.29 23.896 128.375 23.864 128.471 23.864H129.799C129.927 23.864 130.023 23.896 130.087 23.96C130.162 24.024 130.22 24.0827 130.263 24.136L135.303 31.224C135.356 31.2987 135.399 31.3787 135.431 31.464C135.474 31.5387 135.495 31.6293 135.495 31.736V32.616C135.495 32.7227 135.458 32.8133 135.383 32.888C135.319 32.9627 135.228 33 135.111 33H128.999ZM133.575 29.288L132.583 27.896C133.052 27.6827 133.388 27.3627 133.591 26.936C133.794 26.5093 133.895 26.0027 133.895 25.416V24.264C133.895 24.1467 133.927 24.0507 133.991 23.976C134.066 23.9013 134.162 23.864 134.279 23.864H135.399C135.516 23.864 135.607 23.9013 135.671 23.976C135.746 24.0507 135.783 24.1467 135.783 24.264V25.736C135.783 26.5467 135.596 27.2613 135.223 27.88C134.85 28.488 134.3 28.9573 133.575 29.288ZM138.129 33C138.022 33 137.931 32.9627 137.857 32.888C137.782 32.8133 137.745 32.7227 137.745 32.616V24.248C137.745 24.1413 137.782 24.0507 137.857 23.976C137.931 23.9013 138.022 23.864 138.129 23.864H139.457C139.563 23.864 139.654 23.9013 139.729 23.976C139.803 24.0507 139.841 24.1413 139.841 24.248V32.616C139.841 32.7227 139.803 32.8133 139.729 32.888C139.654 32.9627 139.563 33 139.457 33H138.129ZM147.018 33C146.9 33 146.804 32.968 146.73 32.904C146.666 32.8293 146.634 32.7333 146.634 32.616V27.848C146.634 27.1227 146.447 26.5627 146.074 26.168C145.711 25.7627 145.13 25.56 144.33 25.56H142.09C141.972 25.56 141.876 25.5227 141.802 25.448C141.738 25.3733 141.706 25.2827 141.706 25.176V24.248C141.706 24.1413 141.738 24.0507 141.802 23.976C141.876 23.9013 141.972 23.864 142.09 23.864H144.426C145.364 23.864 146.143 24.0027 146.762 24.28C147.391 24.5467 147.86 24.968 148.17 25.544C148.49 26.12 148.65 26.8613 148.65 27.768V32.616C148.65 32.7227 148.612 32.8133 148.538 32.888C148.474 32.9627 148.383 33 148.266 33H147.018ZM154.705 29.256C154.598 29.256 154.507 29.2187 154.433 29.144C154.358 29.0693 154.321 28.9787 154.321 28.872V24.248C154.321 24.1413 154.358 24.0507 154.433 23.976C154.507 23.9013 154.598 23.864 154.705 23.864H156.033C156.15 23.864 156.241 23.9013 156.305 23.976C156.379 24.0507 156.417 24.1413 156.417 24.248V28.872C156.417 28.9787 156.379 29.0693 156.305 29.144C156.241 29.2187 156.15 29.256 156.033 29.256H154.705ZM158.493 33C158.376 33 158.28 32.9627 158.206 32.888C158.131 32.8133 158.094 32.7227 158.094 32.616V31.688C158.094 31.5813 158.131 31.4907 158.206 31.416C158.28 31.3413 158.376 31.304 158.493 31.304H163.31V32.664C163.31 32.7707 163.272 32.856 163.198 32.92C163.123 32.9733 163.032 33 162.926 33H158.493ZM161.838 33C161.731 33 161.646 32.9627 161.582 32.888C161.518 32.8133 161.475 32.7227 161.454 32.616L161.198 27.688C161.176 27.2187 161.128 26.824 161.054 26.504C160.99 26.1733 160.862 25.9227 160.67 25.752C160.488 25.5707 160.195 25.48 159.789 25.48H159.054C158.947 25.48 158.856 25.4427 158.782 25.368C158.707 25.2933 158.67 25.2027 158.67 25.096V24.184C158.67 24.0773 158.707 23.9867 158.782 23.912C158.856 23.8373 158.947 23.8 159.054 23.8H159.822C160.472 23.8 161.011 23.8853 161.438 24.056C161.875 24.216 162.222 24.4613 162.478 24.792C162.744 25.1227 162.936 25.5333 163.054 26.024C163.182 26.504 163.262 27.0533 163.294 27.672L163.55 32.616C163.56 32.7227 163.528 32.8133 163.454 32.888C163.379 32.9627 163.283 33 163.166 33H161.838ZM171.547 33C171.408 33 171.301 32.9627 171.227 32.888C171.152 32.8133 171.093 32.7547 171.051 32.712L165.243 24.456C165.179 24.36 165.147 24.2747 165.147 24.2C165.147 24.104 165.179 24.024 165.243 23.96C165.307 23.896 165.387 23.864 165.483 23.864H166.747C166.896 23.864 167.008 23.9013 167.083 23.976C167.157 24.0507 167.216 24.1147 167.259 24.168L173.115 32.408C173.157 32.472 173.184 32.5253 173.195 32.568C173.205 32.6 173.211 32.632 173.211 32.664C173.211 32.76 173.173 32.84 173.099 32.904C173.035 32.968 172.96 33 172.875 33H171.547ZM165.403 33C165.296 33 165.205 32.9627 165.131 32.888C165.056 32.8133 165.019 32.7173 165.019 32.6V30.392C165.019 29.848 165.067 29.352 165.163 28.904C165.269 28.456 165.461 28.04 165.739 27.656C166.027 27.2613 166.437 26.888 166.971 26.536L167.963 27.976C167.643 28.1893 167.403 28.44 167.243 28.728C167.083 29.0053 166.976 29.2933 166.923 29.592C166.88 29.88 166.859 30.1573 166.859 30.424V32.6C166.859 32.7173 166.821 32.8133 166.747 32.888C166.672 32.9627 166.581 33 166.475 33H165.403ZM170.843 29.992L169.899 28.552C170.336 28.3387 170.645 28.1147 170.827 27.88C171.008 27.6347 171.115 27.384 171.147 27.128C171.189 26.872 171.211 26.6107 171.211 26.344V24.264C171.211 24.1467 171.243 24.0507 171.307 23.976C171.381 23.9013 171.477 23.864 171.595 23.864H172.715C172.832 23.864 172.928 23.9013 173.003 23.976C173.077 24.0507 173.115 24.1467 173.115 24.264V26.424C173.115 26.8613 173.056 27.288 172.939 27.704C172.832 28.12 172.619 28.52 172.299 28.904C171.979 29.2773 171.493 29.64 170.843 29.992Z" fill="black"/>
</svg>
